<svg id="Stellar_WL_Vert" data-name="Stellar WL Vert" xmlns="http://www.w3.org/2000/svg" width="332.849" height="249.93" viewBox="0 0 332.849 249.93">
  <g id="Gruppe_417" data-name="Gruppe 417" transform="translate(95.913 0)">
    <g id="Gruppe_412" data-name="Gruppe 412" transform="translate(19.349 28.465)">
      <path id="Pfad_1097" data-name="Pfad 1097" d="M117.421,63.928l7.07-8A68.414,68.414,0,0,0,92.863,48.3,69.653,69.653,0,0,0,45.607,66.9L41.7,70.44,49.514,77.7l3.907-3.535a57.944,57.944,0,0,1,64-10.233" transform="translate(-41.7 -48.3)" fill="#fff"/>
    </g>
    <g id="Gruppe_413" data-name="Gruppe 413" transform="translate(109.954 44.651)">
      <path id="Pfad_1098" data-name="Pfad 1098" d="M98.4,59.419c-.93-.744-1.86-1.674-2.791-2.419L90.4,66.488l.186.186,3.907,3.535,7.814-7.256Z" transform="translate(-90.4 -57)" fill="#fff"/>
    </g>
    <g id="Gruppe_414" data-name="Gruppe 414" transform="translate(57.302 31.814)">
      <path id="Pfad_1099" data-name="Pfad 1099" d="M76.24,118.565h-.93a5.956,5.956,0,0,1-5.767-4.837,5.587,5.587,0,0,1,4.651-6.512h.93a5.956,5.956,0,0,1,5.767,4.837,5.685,5.685,0,0,1-4.651,6.512M119.588,50.1,75.309,100.147a13.737,13.737,0,0,0-9.3,3.721,12.807,12.807,0,0,0,0,18.419,13.342,13.342,0,0,0,9.488,3.721,14.192,14.192,0,0,0,9.488-3.721,12.875,12.875,0,0,0,2.791-14.7Z" transform="translate(-62.1 -50.1)" fill="#fff"/>
    </g>
    <g id="Gruppe_415" data-name="Gruppe 415" transform="translate(40.186 57.116)">
      <path id="Pfad_1100" data-name="Pfad 1100" d="M82.854,73.747h.372a27.756,27.756,0,0,1,3.907.372l7.628-8.558A34.538,34.538,0,0,0,83.412,63.7h-.558A39.442,39.442,0,0,0,56.807,74.119L52.9,77.654l7.814,7.256,3.907-3.535a27.139,27.139,0,0,1,18.233-7.628" transform="translate(-52.9 -63.7)" fill="#fff"/>
    </g>
    <g id="Gruppe_416" data-name="Gruppe 416">
      <path id="Pfad_1101" data-name="Pfad 1101" d="M168.6,59.791C151.114,42.488,127.486,33,101.812,33c-25.488,0-49.3,9.488-66.791,26.791L31.3,63.512l8,6.884,3.721-3.721a84.287,84.287,0,0,1,58.791-23.628c22.512,0,43.349,8.372,58.791,23.628l3.721,3.721,8-6.884Z" transform="translate(-31.3 -33)" fill="#fff"/>
    </g>
  </g>
  <g id="Gruppe_420" data-name="Gruppe 420" transform="translate(0 137.071)">
    <g id="Gruppe_418" data-name="Gruppe 418" transform="translate(0 72.222)">
      <path id="Pfad_1102" data-name="Pfad 1102" d="M460.841,83.637V82.344a12.059,12.059,0,0,0-1.662-6.834c-1.847-2.771-4.987-3.51-12.93-3.51-7.2,0-10.159.554-12.56,2.217-2.032,1.478-2.955,4.433-2.955,9.051,0,5.172,1.293,8.127,4.433,9.6,2.032.924,2.955,1.108,10.159,1.478,6.834.369,7.019.369,7.943.924,1.662.554,2.4,2.032,2.4,4.987,0,6.28-1.108,7.2-9.42,7.2-6.65,0-7.758-.185-8.681-2.032-.739-1.293-.924-2.217-.924-5.726h-5.911a25.931,25.931,0,0,0,.554,6.28,7.43,7.43,0,0,0,3.14,4.8c2.4,1.478,4.618,1.847,10.9,1.847,7.573,0,10.529-.369,12.93-1.847,2.586-1.662,3.694-4.433,3.694-10.344,0-4.8-.739-7.2-2.955-8.866-1.847-1.293-4.064-1.662-11.083-2.217-6.28-.369-6.834-.369-7.943-.739-2.032-.554-2.771-2.217-2.771-5.357,0-5.357,1.478-6.28,9.79-6.28,4.8,0,6.465.554,7.573,2.032.554.924.739,1.847.739,4.618Zm-43.776,0V82.344A12.059,12.059,0,0,0,415.4,75.51c-1.847-2.771-4.987-3.51-12.93-3.51-7.2,0-10.159.554-12.56,2.217-2.032,1.478-2.955,4.433-2.955,9.051,0,5.172,1.293,8.127,4.433,9.6,2.032.924,2.955,1.108,10.159,1.478,6.834.369,7.019.369,7.943.924,1.662.554,2.4,2.032,2.4,4.987,0,6.28-1.108,7.2-9.42,7.2-6.65,0-7.758-.185-8.681-2.032-.739-1.293-.924-2.217-.924-5.726h-5.911a25.927,25.927,0,0,0,.554,6.28,7.43,7.43,0,0,0,3.14,4.8c2.4,1.478,4.618,1.847,10.9,1.847,7.573,0,10.529-.369,12.93-1.847,2.586-1.662,3.694-4.433,3.694-10.344,0-4.8-.739-7.2-2.955-8.866-1.847-1.293-4.064-1.662-11.083-2.217-6.28-.369-6.834-.369-7.943-.739-2.032-.554-2.771-2.217-2.771-5.357,0-5.357,1.478-6.28,9.79-6.28,4.8,0,6.465.554,7.573,2.032.554.924.739,1.847.739,4.618Zm-63.171-6.1h20.318V72.369H347.8v39.9h26.414V107.1h-20.5V94.165H373.1V89.548H353.708V77.541Zm-37.866-5.172h-6.1v39.9h25.675v-5.541H316.027V72.369Zm-40.636,5.172h20.318V72.369H269.3v39.9h26.414V107.1h-20.5V94.165H294.6V89.548H275.206V77.541ZM229.4,92.5V77.726h12.93a9.124,9.124,0,0,1,4.433.739c1.662.924,2.217,2.217,2.217,7.019,0,3.51-.369,4.8-2.032,5.911-1.108.924-2.771,1.293-5.541,1.293H229.4Zm-6.1,19.764h6.1V97.675h12.191c2.771,0,3.879.185,5.172,1.293,1.293.924,1.662,2.4,1.662,5.172v8.127h6.1v-9.42c0-4.8-2.032-7.388-6.465-7.758V94.9c5.541-.924,7.019-3.325,7.019-10.9,0-8.681-3.14-11.637-12.191-11.637h-19.21v39.9Zm-15.7-39.9h-6.1v39.9h6.1Zm-18.841,0h-6.28l-7.2,25.121c-.739,2.4-.739,2.586-2.586,9.79h-.185c-1.108-4.248-1.847-7.573-2.586-9.79l-7.2-25.121H154.96l-7.2,25.121c-.554,2.217-1.108,4.064-1.293,4.8-.554,2.032-.924,3.694-1.293,4.8h-.185c-1.478-6.465-1.847-7.758-2.4-9.79l-7.2-25.121H129.1l11.267,39.9h9.051L156.437,87.7c.554-2.032,1.293-4.8,2.4-8.5h.185l.739,2.955A48.526,48.526,0,0,0,161.24,87.7l7.019,24.382h9.051Z" transform="translate(-129.1 -72)" fill="#fff"/>
    </g>
    <g id="Gruppe_419" data-name="Gruppe 419" transform="translate(2.586 0)">
      <path id="Pfad_1103" data-name="Pfad 1103" d="M426.961,59.314V40.288h16.624a13.039,13.039,0,0,1,5.541.924c2.217,1.293,2.771,2.955,2.771,8.866,0,4.433-.554,6.1-2.586,7.573-1.478,1.108-3.694,1.662-7.019,1.662ZM419.2,84.619h7.758V65.963h15.516c3.694,0,4.987.369,6.65,1.662s2.032,3.14,2.032,6.65V84.619H459.1V72.613c0-6.28-2.586-9.42-8.312-9.974v-.185c7.2-1.293,9.051-4.248,9.051-14.038,0-11.083-4.064-14.962-15.7-14.962H419.388V84.619ZM395.191,68.364H375.242l9.974-28.815Zm1.847,6.1L400.732,84.8h8.127l-18.1-51.165H379.306L361.389,84.8H369.7L373.21,74.46ZM327.587,33.454h-7.758V84.619h32.879V77.6H327.587Zm-43.407,0h-7.758V84.619H309.3V77.6H284.179ZM237.448,40.1h26.044v-6.65h-33.8V84.619h33.987v-6.65H237.448V61.345h24.936V55.435H237.448Zm-34.726.554h15.885V33.639H179.264v7.019h15.7V84.8h7.758Zm-33.248,7.2V46.2c0-3.879-.739-6.65-2.217-8.866-2.4-3.51-6.465-4.433-16.624-4.433-9.236,0-12.93.554-16.07,2.955-2.586,2.032-3.879,5.726-3.879,11.637,0,6.834,1.662,10.344,5.726,12.376,2.586,1.293,3.694,1.478,12.93,1.847,8.866.554,8.866.554,10.344,1.108,2.032.739,2.955,2.586,2.955,6.465,0,8.127-1.293,9.236-12.191,9.236-8.681,0-9.974-.185-11.267-2.586-.924-1.662-1.108-2.771-1.108-7.388H130.5a40.069,40.069,0,0,0,.554,7.943,10.752,10.752,0,0,0,4.064,6.28c3.14,1.847,6.1,2.4,14.038,2.4,9.79,0,13.484-.554,16.624-2.4,3.325-2.032,4.618-5.726,4.618-13.114,0-6.1-1.108-9.42-3.879-11.452-2.4-1.847-5.172-2.217-14.407-2.771-7.943-.369-8.681-.554-10.159-1.108-2.586-.739-3.509-2.771-3.509-6.834,0-6.834,2.032-7.943,12.56-7.943,6.1,0,8.312.554,9.6,2.586.739,1.293.924,2.4.924,5.911h7.943Z" transform="translate(-130.5 -32.9)" fill="#fff"/>
    </g>
  </g>
</svg>
